<svg xmlns="http://www.w3.org/2000/svg" width="20" height="20" viewBox="0 0 20 20" fill="currentColor">
<path d="M4.6 4C3.17122 4 2 5.09802 2 6.4375V13.5625C2 14.902 3.17122 16 4.6 16H15.4C16.8288 16 18 14.902 18 13.5625V6.4375C18 5.09802 16.8288 4 15.4 4H4.6ZM4.6 5.125H15.4C16.18 5.125 16.8 5.70623 16.8 6.4375V6.85205L10 10.2981L3.2 6.85205V6.4375C3.2 5.70623 3.81998 5.125 4.6 5.125ZM3.2 8.13086L9.71484 11.4326C9.80244 11.477 9.90044 11.5002 10 11.5002C10.0996 11.5002 10.1976 11.477 10.2852 11.4326L16.8 8.13086V13.5625C16.8 14.2938 16.18 14.875 15.4 14.875H4.6C3.81998 14.875 3.2 14.2938 3.2 13.5625V8.13086Z" />
</svg>
